<?xml version="1.0" encoding="UTF-8"?>
<svg version="1.1" xmlns="http://www.w3.org/2000/svg" width="512" height="512">
<path d="M0 0 C0.76981201 0.56855713 1.53962402 1.13711426 2.33276367 1.72290039 C3.59443359 2.65199219 3.59443359 2.65199219 4.8815918 3.59985352 C6.17806641 4.57535156 6.17806641 4.57535156 7.50073242 5.57055664 C8.82621094 6.54025391 8.82621094 6.54025391 10.1784668 7.52954102 C14.99562932 11.11172442 14.99562932 11.11172442 16.68823242 12.63305664 C16.68823242 13.29305664 16.68823242 13.95305664 16.68823242 14.63305664 C17.25864258 14.89860352 17.82905273 15.16415039 18.41674805 15.43774414 C20.81256295 16.69848251 22.86505231 18.13615943 25.03198242 19.75805664 C25.85988281 20.37704834 26.6877832 20.99604004 27.54077148 21.63378906 C28.41443359 22.29354736 29.2880957 22.95330566 30.18823242 23.63305664 C31.09025391 24.31150635 31.99227539 24.98995605 32.92163086 25.68896484 C38.66636151 30.03464215 44.23008463 34.51615522 49.71557617 39.18383789 C53.87620665 42.6118475 58.20028586 45.80264859 62.5300293 49.01245117 C68.66534302 53.57570105 74.6324767 58.33142402 80.57885742 63.13696289 C83.5203233 65.56441803 83.5203233 65.56441803 86.11010742 67.28540039 C86.63088867 67.73012695 87.15166992 68.17485352 87.68823242 68.63305664 C87.68823242 69.62305664 87.68823242 70.61305664 87.68823242 71.63305664 C87.06295654 71.87314453 86.43768066 72.11323242 85.79345703 72.3605957 C72.68952168 77.39337803 59.59068307 82.43902559 46.50073242 87.50805664 C45.52860306 87.88448807 45.52860306 87.88448807 44.53683472 88.26852417 C38.66427412 90.54264658 32.79202392 92.81756968 26.92016602 95.09350586 C10.51276119 101.45274808 -5.90364252 107.78801891 -22.32910156 114.10049438 C-34.39726538 118.73865604 -46.45828928 123.39470625 -58.51293945 128.06787109 C-69.94895526 132.49946696 -81.39805932 136.89684551 -92.84719849 141.29440308 C-103.48404316 145.38073772 -114.11490326 149.48067653 -124.7121582 153.66894531 C-130.43520665 155.92442363 -136.18861518 158.0946205 -141.95045471 160.24856567 C-148.99825036 162.88494983 -156.02873049 165.56585997 -163.05639648 168.25537109 C-165.17898831 169.06757991 -167.30199742 169.87869065 -169.42504883 170.68969727 C-179.73582164 174.63316547 -190.02284517 178.63180904 -200.31176758 182.63305664 C-200.64176758 197.48305664 -200.97176758 212.33305664 -201.31176758 227.63305664 C-196.69176758 225.65305664 -192.07176758 223.67305664 -187.31176758 221.63305664 C-182.8403575 219.89725261 -178.36698149 218.18595935 -173.87426758 216.50805664 C-171.30974184 215.54382791 -168.74625977 214.57684024 -166.18286133 213.60961914 C-165.20452332 213.24084656 -165.20452332 213.24084656 -164.2064209 212.86462402 C-157.26714564 210.24563349 -150.35087691 207.56767924 -143.43676758 204.88305664 C-140.85615062 203.88146514 -138.27542506 202.88015417 -135.69458008 201.87915039 C-134.70152107 201.49398003 -134.70152107 201.49398003 -133.68840027 201.10102844 C-124.90370489 197.69636306 -116.10679132 194.32342513 -107.31176758 190.94555664 C-96.65347073 186.85194153 -86.00074415 182.74628471 -75.37426758 178.57055664 C-65.13841018 174.549849 -54.86156451 170.6562322 -44.53051758 166.88696289 C-43.70455078 166.58483887 -42.87858398 166.28271484 -42.02758789 165.97143555 C-40.45497126 165.39688551 -38.88148887 164.82469584 -37.30688477 164.25561523 C-32.97734188 162.67494331 -28.71311341 160.9821981 -24.46411133 159.19555664 C-18.56771286 156.71866027 -12.61313137 154.43780034 -6.62426758 152.19555664 C8.27075921 146.5821972 23.12125622 140.85379113 37.96988297 135.11909103 C39.85376674 134.39153973 41.73771251 133.6641492 43.62167358 132.9367981 C47.24166456 131.53905995 50.8614483 130.14078625 54.48120117 128.74243164 C55.62888474 128.29939194 56.7765683 127.85635223 57.95903015 127.39988708 C63.09754542 125.41472534 68.23310711 123.4230046 73.35864258 121.40454102 C74.20388992 121.07246643 75.04913727 120.74039185 75.91999817 120.39825439 C77.45753483 119.79326832 78.99398678 119.18551485 80.52909851 118.57440186 C85.46632688 116.63305664 85.46632688 116.63305664 87.68823242 116.63305664 C87.68823242 149.30305664 87.68823242 181.97305664 87.68823242 215.63305664 C81.47856681 218.39290803 75.30398894 221.05702213 69.00073242 223.57055664 C67.69362305 224.0932312 67.69362305 224.0932312 66.36010742 224.62646484 C60.3594322 227.00983318 54.33163224 229.24931907 48.21948242 231.33227539 C45.1312142 232.46987862 42.11533924 233.69660149 39.08276367 234.97290039 C32.7353762 237.63813694 26.32038165 240.08936373 19.87573242 242.50805664 C17.31422786 243.47470329 14.75296787 244.44196865 12.19213867 245.41040039 C11.51741516 245.66545853 10.84269165 245.92051666 10.14752197 246.18330383 C1.52374519 249.44682802 -7.08158731 252.75837722 -15.68676758 256.07055664 C-16.51931061 256.3909491 -17.35185364 256.71134155 -18.20962524 257.04144287 C-29.70505136 261.46612681 -41.19466318 265.90568436 -52.67977905 270.35705566 C-64.25538556 274.84327302 -75.84121396 279.30265915 -87.43014526 283.7543335 C-97.3203291 287.55350977 -107.20616262 291.36358625 -117.08520508 295.19165039 C-119.0699841 295.96029389 -121.05476599 296.72893 -123.03955078 297.49755859 C-126.83312857 298.96676996 -130.62578961 300.43831584 -134.41796875 301.91113281 C-143.04816671 305.25681365 -151.68351955 308.54323652 -160.42456055 311.59033203 C-163.28350648 312.62285005 -166.07742238 313.75605118 -168.87426758 314.94555664 C-174.61938697 317.38217232 -180.42388771 319.64696678 -186.24926758 321.88305664 C-187.16200439 322.2366626 -188.07474121 322.59026855 -189.01513672 322.95458984 C-189.88517334 323.28676514 -190.75520996 323.61894043 -191.65161133 323.96118164 C-192.81744751 324.4083252 -192.81744751 324.4083252 -194.00683594 324.86450195 C-196.31176758 325.63305664 -196.31176758 325.63305664 -201.31176758 326.63305664 C-200.98176758 341.48305664 -200.65176758 356.33305664 -200.31176758 371.63305664 C-190.41176758 367.67305664 -190.41176758 367.67305664 -180.31176758 363.63305664 C-176.37780937 362.10114145 -172.44305334 360.5763344 -168.49926758 359.07055664 C-166.30130729 358.22822253 -164.10339389 357.38576609 -161.90551758 356.54321289 C-160.11887695 355.8589624 -160.11887695 355.8589624 -158.29614258 355.16088867 C-153.76834611 353.42570154 -149.24315901 351.6837474 -144.71801758 349.94165039 C-143.02506567 349.28995622 -141.33211319 348.63826352 -139.63916016 347.98657227 C-138.79173248 347.66035889 -137.94430481 347.33414551 -137.07119751 346.99804688 C-125.00985517 342.35538108 -112.94465821 337.72414703 -100.8605957 333.14086914 C-94.91136784 330.87784924 -89.00480292 328.51848093 -83.10180664 326.13793945 C-79.54587743 324.71655689 -75.9668449 323.36444792 -72.37817383 322.02758789 C-61.25782165 317.87292149 -50.15961508 313.659899 -39.06176758 309.44555664 C-37.95272064 309.02442596 -36.84367371 308.60329529 -35.70101929 308.16940308 C-21.03483675 302.59757269 -6.39525208 296.97063001 8.19213867 291.19555664 C17.17909133 287.63947739 26.19902836 284.16821313 35.21630859 280.68994141 C36.43680908 280.2187085 37.65730957 279.74747559 38.91479492 279.26196289 C40.64777832 278.59318115 40.64777832 278.59318115 42.41577148 277.91088867 C46.23192256 276.42075627 50.02583653 274.88005806 53.81079102 273.3125 C55.68823242 272.63305664 55.68823242 272.63305664 57.68823242 272.63305664 C55.77365557 279.0149795 53.26338223 284.73081561 50.18823242 290.64086914 C48.88901974 293.23252777 47.71104818 295.84223393 46.58569336 298.51293945 C44.54086031 303.34355159 42.41826481 308.14096245 40.31323242 312.94555664 C39.84401367 314.02256836 39.37479492 315.09958008 38.89135742 316.20922852 C36.33892712 322.02975672 33.66880402 327.75163822 30.79003906 333.41748047 C29.28905197 336.43575165 27.98290844 339.52148234 26.68823242 342.63305664 C22.93577611 351.34768861 19.09110582 360.01531007 15.08666992 368.61743164 C13.76506494 371.46737312 12.47395625 374.32929333 11.18823242 377.19555664 C10.55594727 378.52200195 10.55594727 378.52200195 9.91088867 379.87524414 C8.61869224 382.64166492 8.61869224 382.64166492 7.74682617 385.70336914 C5.87627197 390.90442229 3.85502963 394.31382102 -1.15942383 396.78149414 C-5.44492638 398.60040219 -9.84023836 400.09014777 -14.2512207 401.57299805 C-19.79939578 403.49467771 -25.23224861 405.7126921 -30.68676758 407.88305664 C-33.09269443 408.82789032 -35.49895034 409.77188649 -37.90551758 410.71508789 C-45.34336848 413.64005227 -52.76723017 416.5995308 -60.18676758 419.57055664 C-60.80948547 419.81979889 -61.43220337 420.06904114 -62.0737915 420.32583618 C-68.9454132 423.0765013 -75.81396058 425.83463523 -82.67895508 428.60180664 C-159.88645115 459.68521123 -159.88645115 459.68521123 -191.26879883 459.83618164 C-192.21123947 459.84188171 -193.15368011 459.84758179 -194.12467957 459.85345459 C-196.11566056 459.86286049 -198.1066568 459.86942093 -200.09765625 459.87329102 C-203.07752383 459.88290582 -206.05667341 459.91393389 -209.03637695 459.94555664 C-225.49673892 460.03771091 -241.09704802 458.14569123 -256.99926758 453.82055664 C-257.96928711 453.55976318 -258.93930664 453.29896973 -259.9387207 453.03027344 C-282.24700469 446.88958195 -303.53012986 437.18873019 -322.31176758 423.63305664 C-323.30176758 422.97305664 -324.29176758 422.31305664 -325.31176758 421.63305664 C-325.62179002 419.07148577 -325.73350354 416.74817272 -325.71963501 414.18232727 C-325.72713724 413.40463728 -325.73463948 412.62694728 -325.74236906 411.82569093 C-325.76379851 409.20447337 -325.76358518 406.58370122 -325.76342773 403.96240234 C-325.77403653 402.08811239 -325.78586575 400.21382899 -325.79882812 398.33955383 C-325.82970823 393.23083406 -325.84076349 388.12225442 -325.84647036 383.01345086 C-325.85082286 379.81414401 -325.85919735 376.61487345 -325.86896896 373.41557884 C-325.90277917 362.23032147 -325.91985455 351.04516988 -325.92260742 339.85986328 C-325.92562595 329.47857183 -325.96585087 319.09788283 -326.02375567 308.7167657 C-326.07182154 299.78053598 -326.0923398 290.84450259 -326.09239805 281.90814465 C-326.09293234 276.58243186 -326.10415633 271.25730559 -326.14357376 265.93172646 C-326.4376298 223.5317281 -326.4376298 223.5317281 -318.31176758 204.63305664 C-317.84576645 203.41508392 -317.37976532 202.19711121 -316.89964294 200.94223022 C-315.89110697 198.31194468 -314.7931637 195.75772566 -313.62426758 193.19555664 C-313.26010742 192.36475586 -312.89594727 191.53395508 -312.52075195 190.67797852 C-308.07713777 180.62638065 -302.82778454 171.13047883 -297.31176758 161.63305664 C-296.79356445 160.72942383 -296.27536133 159.82579102 -295.74145508 158.89477539 C-288.69525582 146.82382748 -279.83302138 136.2270434 -270.89575195 125.53442383 C-269.88541877 124.32165027 -268.88087222 123.10401617 -267.8840332 121.88012695 C-265.80780861 119.33854167 -263.80505806 116.9968128 -261.18676758 115.00805664 C-258.73067482 112.97911045 -257.17870684 111.15342465 -255.31176758 108.63305664 C-254.65176758 108.63305664 -253.99176758 108.63305664 -253.31176758 108.63305664 C-253.31176758 107.97305664 -253.31176758 107.31305664 -253.31176758 106.63305664 C-247.8355771 101.63305664 -247.8355771 101.63305664 -245.31176758 101.63305664 C-245.31176758 100.97305664 -245.31176758 100.31305664 -245.31176758 99.63305664 C-243.41333008 97.90649414 -243.41333008 97.90649414 -240.93676758 96.00805664 C-240.1246582 95.37641602 -239.31254883 94.74477539 -238.47583008 94.09399414 C-236.31176758 92.63305664 -236.31176758 92.63305664 -234.31176758 92.63305664 C-234.31176758 91.97305664 -234.31176758 91.31305664 -234.31176758 90.63305664 C-232.60620117 89.24780273 -232.60620117 89.24780273 -230.21020508 87.65649414 C-229.33477051 87.072146 -228.45933594 86.48779785 -227.55737305 85.88574219 C-226.61007324 85.26610596 -225.66277344 84.64646973 -224.68676758 84.00805664 C-223.72270996 83.37359619 -222.75865234 82.73913574 -221.76538086 82.08544922 C-192.60697552 63.03382949 -160.66183387 51.54772215 -127.90942383 40.25805664 C-119.43117958 37.33317194 -110.96209201 34.38220181 -102.49554443 31.42364502 C-100.78210086 30.82515462 -99.06844581 30.22726924 -97.35455322 29.63006592 C-87.55964511 26.21664851 -77.79990884 22.72490588 -68.07414246 19.11907959 C-61.14727829 16.55701757 -54.17935828 14.1354774 -47.18676758 11.75805664 C-39.78397506 9.23567088 -32.39855549 6.68789365 -25.06958008 3.95727539 C-23.93020996 3.53494629 -22.79083984 3.11261719 -21.61694336 2.67749023 C-19.46289689 1.87461548 -17.31258907 1.0616152 -15.16674805 0.23706055 C-14.20397949 -0.12081543 -13.24121094 -0.47869141 -12.24926758 -0.84741211 C-11.41266602 -1.16605225 -10.57606445 -1.48469238 -9.71411133 -1.81298828 C-5.86860571 -2.69972123 -3.36411093 -1.98919179 0 0 Z " fill="#FE984B" transform="translate(367.311767578125,27.366943359375)"/>
<path d="M0 0 C0.76981201 0.56855713 1.53962402 1.13711426 2.33276367 1.72290039 C3.59443359 2.65199219 3.59443359 2.65199219 4.8815918 3.59985352 C6.17806641 4.57535156 6.17806641 4.57535156 7.50073242 5.57055664 C8.82621094 6.54025391 8.82621094 6.54025391 10.1784668 7.52954102 C14.99562932 11.11172442 14.99562932 11.11172442 16.68823242 12.63305664 C16.68823242 13.29305664 16.68823242 13.95305664 16.68823242 14.63305664 C17.25864258 14.89860352 17.82905273 15.16415039 18.41674805 15.43774414 C20.81256295 16.69848251 22.86505231 18.13615943 25.03198242 19.75805664 C25.85988281 20.37704834 26.6877832 20.99604004 27.54077148 21.63378906 C28.41443359 22.29354736 29.2880957 22.95330566 30.18823242 23.63305664 C31.09025391 24.31150635 31.99227539 24.98995605 32.92163086 25.68896484 C38.66636151 30.03464215 44.23008463 34.51615522 49.71557617 39.18383789 C53.87620665 42.6118475 58.20028586 45.80264859 62.5300293 49.01245117 C68.66534302 53.57570105 74.6324767 58.33142402 80.57885742 63.13696289 C83.5203233 65.56441803 83.5203233 65.56441803 86.11010742 67.28540039 C86.63088867 67.73012695 87.15166992 68.17485352 87.68823242 68.63305664 C87.68823242 69.62305664 87.68823242 70.61305664 87.68823242 71.63305664 C87.06295654 71.87314453 86.43768066 72.11323242 85.79345703 72.3605957 C72.68952168 77.39337803 59.59068307 82.43902559 46.50073242 87.50805664 C45.52860306 87.88448807 45.52860306 87.88448807 44.53683472 88.26852417 C38.66427412 90.54264658 32.79202392 92.81756968 26.92016602 95.09350586 C10.51276119 101.45274808 -5.90364252 107.78801891 -22.32910156 114.10049438 C-34.39726538 118.73865604 -46.45828928 123.39470625 -58.51293945 128.06787109 C-69.94895526 132.49946696 -81.39805932 136.89684551 -92.84719849 141.29440308 C-103.48404316 145.38073772 -114.11490326 149.48067653 -124.7121582 153.66894531 C-130.43520665 155.92442363 -136.18861518 158.0946205 -141.95045471 160.24856567 C-148.99825036 162.88494983 -156.02873049 165.56585997 -163.05639648 168.25537109 C-165.17898831 169.06757991 -167.30199742 169.87869065 -169.42504883 170.68969727 C-179.73582164 174.63316547 -190.02284517 178.63180904 -200.31176758 182.63305664 C-200.64176758 197.81305664 -200.97176758 212.99305664 -201.31176758 228.63305664 C-205.10676758 230.15930664 -208.90176758 231.68555664 -212.81176758 233.25805664 C-213.9712793 233.72550293 -215.13079102 234.19294922 -216.32543945 234.67456055 C-223.51794152 237.55892976 -230.75212059 240.31815917 -238.01245117 243.02563477 C-245.10361522 245.67161894 -252.17350813 248.37394133 -259.24609375 251.0690918 C-261.02332582 251.74630554 -262.80067272 252.42321796 -264.578125 253.09985352 C-274.94532503 257.04646329 -285.30554156 261.01025952 -295.65161133 265.01196289 C-296.55561172 265.36125351 -297.45961212 265.71054413 -298.39100647 266.07041931 C-302.72891963 267.74660402 -307.06552697 269.426016 -311.39990234 271.11132812 C-312.95380233 271.71246338 -314.50775445 272.31346391 -316.06176758 272.91430664 C-317.12590126 273.33027855 -317.12590126 273.33027855 -318.21153259 273.75465393 C-323.08464873 275.63305664 -323.08464873 275.63305664 -325.31176758 275.63305664 C-326.78372827 223.52507594 -326.78372827 223.52507594 -318.31176758 204.63305664 C-317.53029148 202.72381367 -316.75444256 200.81225971 -315.98364258 198.89868164 C-310.66379741 185.92000901 -304.35213261 173.75508592 -297.31176758 161.63305664 C-296.79356445 160.72942383 -296.27536133 159.82579102 -295.74145508 158.89477539 C-288.69525582 146.82382748 -279.83302138 136.2270434 -270.89575195 125.53442383 C-269.88541877 124.32165027 -268.88087222 123.10401617 -267.8840332 121.88012695 C-265.80780861 119.33854167 -263.80505806 116.9968128 -261.18676758 115.00805664 C-258.73067482 112.97911045 -257.17870684 111.15342465 -255.31176758 108.63305664 C-254.65176758 108.63305664 -253.99176758 108.63305664 -253.31176758 108.63305664 C-253.31176758 107.97305664 -253.31176758 107.31305664 -253.31176758 106.63305664 C-247.8355771 101.63305664 -247.8355771 101.63305664 -245.31176758 101.63305664 C-245.31176758 100.97305664 -245.31176758 100.31305664 -245.31176758 99.63305664 C-243.41333008 97.90649414 -243.41333008 97.90649414 -240.93676758 96.00805664 C-240.1246582 95.37641602 -239.31254883 94.74477539 -238.47583008 94.09399414 C-236.31176758 92.63305664 -236.31176758 92.63305664 -234.31176758 92.63305664 C-234.31176758 91.97305664 -234.31176758 91.31305664 -234.31176758 90.63305664 C-232.60620117 89.24780273 -232.60620117 89.24780273 -230.21020508 87.65649414 C-229.33477051 87.072146 -228.45933594 86.48779785 -227.55737305 85.88574219 C-226.61007324 85.26610596 -225.66277344 84.64646973 -224.68676758 84.00805664 C-223.72270996 83.37359619 -222.75865234 82.73913574 -221.76538086 82.08544922 C-192.60697552 63.03382949 -160.66183387 51.54772215 -127.90942383 40.25805664 C-119.43117958 37.33317194 -110.96209201 34.38220181 -102.49554443 31.42364502 C-100.78210086 30.82515462 -99.06844581 30.22726924 -97.35455322 29.63006592 C-87.55964511 26.21664851 -77.79990884 22.72490588 -68.07414246 19.11907959 C-61.14727829 16.55701757 -54.17935828 14.1354774 -47.18676758 11.75805664 C-39.78397506 9.23567088 -32.39855549 6.68789365 -25.06958008 3.95727539 C-23.93020996 3.53494629 -22.79083984 3.11261719 -21.61694336 2.67749023 C-19.46289689 1.87461548 -17.31258907 1.0616152 -15.16674805 0.23706055 C-14.20397949 -0.12081543 -13.24121094 -0.47869141 -12.24926758 -0.84741211 C-11.41266602 -1.16605225 -10.57606445 -1.48469238 -9.71411133 -1.81298828 C-5.86860571 -2.69972123 -3.36411093 -1.98919179 0 0 Z " fill="#61CBE2" transform="translate(367.311767578125,27.366943359375)"/>
<path d="M0 0 C-1.91457686 6.38192285 -4.4248502 12.09775897 -7.5 18.0078125 C-8.79921268 20.59947113 -9.97718424 23.20917729 -11.10253906 25.87988281 C-13.14737211 30.71049495 -15.26996761 35.50790581 -17.375 40.3125 C-17.84421875 41.38951172 -18.3134375 42.46652344 -18.796875 43.57617188 C-21.3493053 49.39670008 -24.0194284 55.11858157 -26.89819336 60.78442383 C-28.39918045 63.802695 -29.70532398 66.8884257 -31 70 C-34.75245632 78.71463197 -38.5971266 87.38225343 -42.6015625 95.984375 C-43.92316749 98.83431648 -45.21427617 101.69623669 -46.5 104.5625 C-47.13228516 105.88894531 -47.13228516 105.88894531 -47.77734375 107.2421875 C-49.06954018 110.00860828 -49.06954018 110.00860828 -49.94140625 113.0703125 C-51.81196045 118.27136565 -53.83320279 121.68076438 -58.84765625 124.1484375 C-63.13315881 125.96734555 -67.52847078 127.45709113 -71.93945312 128.93994141 C-77.4876282 130.86162106 -82.92048103 133.07963546 -88.375 135.25 C-90.78092686 136.19483368 -93.18718277 137.13882985 -95.59375 138.08203125 C-103.0316009 141.00699563 -110.45546259 143.96647416 -117.875 146.9375 C-118.4977179 147.18674225 -119.12043579 147.4359845 -119.76202393 147.69277954 C-126.63364562 150.44344466 -133.502193 153.20157859 -140.3671875 155.96875 C-217.57468357 187.05215459 -217.57468357 187.05215459 -248.95703125 187.203125 C-249.89947189 187.20882507 -250.84191254 187.21452515 -251.81291199 187.22039795 C-253.80389298 187.22980385 -255.79488923 187.23636429 -257.78588867 187.24023438 C-260.76575626 187.24984918 -263.74490583 187.28087724 -266.72460938 187.3125 C-283.18497134 187.40465427 -298.78528044 185.51263459 -314.6875 181.1875 C-315.65751953 180.92670654 -316.62753906 180.66591309 -317.62695312 180.3972168 C-339.93523711 174.25652531 -361.21836229 164.55567355 -380 151 C-380.99 150.34 -381.98 149.68 -383 149 C-383.36076355 146.93722534 -383.36076355 146.93722534 -383.34057617 144.36669922 C-383.34034958 143.40585419 -383.34012299 142.44500916 -383.33988953 141.45504761 C-383.32440567 140.41542877 -383.30892181 139.37580994 -383.29296875 138.3046875 C-383.28872391 137.24210724 -383.28447906 136.17952698 -383.28010559 135.08474731 C-383.26327389 131.68124354 -383.22561303 128.27832567 -383.1875 124.875 C-383.17245899 122.57162312 -383.15876958 120.26823698 -383.14648438 117.96484375 C-383.11335574 112.30969495 -383.06311197 106.65488932 -383 101 C-382.00709961 100.6189209 -381.01419922 100.2378418 -379.99121094 99.84521484 C-362.70737819 93.21031162 -345.42640916 86.56862895 -328.17584229 79.84762573 C-321.45192635 77.22824279 -314.72611377 74.6137331 -308 72 C-307.15562378 71.6717926 -306.31124756 71.34358521 -305.44128418 71.00543213 C-300.11639756 68.93628341 -294.7897277 66.87181951 -289.4609375 64.81274414 C-287.76022289 64.15490542 -286.06001209 63.49576246 -284.36035156 62.83520508 C-281.98900443 61.91388229 -279.61583094 60.99741891 -277.2421875 60.08203125 C-276.55510712 59.81389114 -275.86802673 59.54575104 -275.16012573 59.26948547 C-269.8111821 57.21562812 -264.53516643 55.66054993 -259 54 C-258.67 68.85 -258.34 83.7 -258 99 C-251.4 96.36 -244.8 93.72 -238 91 C-234.06604179 89.46808481 -230.13128577 87.94327776 -226.1875 86.4375 C-223.98953972 85.59516589 -221.79162631 84.75270945 -219.59375 83.91015625 C-218.40265625 83.45398926 -217.2115625 82.99782227 -215.984375 82.52783203 C-211.45657853 80.7926449 -206.93139143 79.05069076 -202.40625 77.30859375 C-200.71329809 76.65689958 -199.02034561 76.00520688 -197.32739258 75.35351562 C-196.4799649 75.02730225 -195.63253723 74.70108887 -194.75942993 74.36499023 C-182.69808759 69.72232444 -170.63289063 65.09109039 -158.54882812 60.5078125 C-152.59960026 58.2447926 -146.69303534 55.88542428 -140.79003906 53.50488281 C-137.23410985 52.08350024 -133.65507732 50.73139128 -130.06640625 49.39453125 C-118.94605407 45.23986485 -107.8478475 41.02684236 -96.75 36.8125 C-95.64095306 36.39136932 -94.53190613 35.97023865 -93.38925171 35.53634644 C-78.72306917 29.96451605 -64.0834845 24.33757337 -49.49609375 18.5625 C-40.50914109 15.00642075 -31.48920406 11.53515649 -22.47192383 8.05688477 C-21.25142334 7.58565186 -20.03092285 7.11441895 -18.7734375 6.62890625 C-17.61811523 6.18305176 -16.46279297 5.73719727 -15.27246094 5.27783203 C-11.45630986 3.78769963 -7.66239589 2.24700142 -3.87744141 0.67944336 C-2 0 -2 0 0 0 Z " fill="#5FCBE2" transform="translate(425,300)"/>
<path d="M0 0 C0 15.51 0 31.02 0 47 C-3.795 48.52625 -7.59 50.0525 -11.5 51.625 C-12.65951172 52.09244629 -13.81902344 52.55989258 -15.01367188 53.04150391 C-22.20617394 55.92587312 -29.44035301 58.68510253 -36.70068359 61.39257812 C-43.79184764 64.0385623 -50.86174055 66.74088469 -57.93432617 69.43603516 C-59.71155824 70.1132489 -61.48890515 70.79016132 -63.26635742 71.46679688 C-73.63355745 75.41340665 -83.99377398 79.37720288 -94.33984375 83.37890625 C-95.24384415 83.72819687 -96.14784454 84.07748749 -97.07923889 84.43736267 C-101.41715205 86.11354738 -105.7537594 87.79295936 -110.08813477 89.47827148 C-111.64203476 90.07940674 -113.19598688 90.68040727 -114.75 91.28125 C-115.81413368 91.69722191 -115.81413368 91.69722191 -116.89976501 92.12159729 C-121.77288115 94 -121.77288115 94 -124 94 C-124 78.49 -124 62.98 -124 47 C-117.56279838 44.42511935 -111.12650086 41.88090774 -104.64453125 39.42578125 C-102.8806851 38.75572693 -101.1168509 38.08564115 -99.35302734 37.41552734 C-97.99428497 36.89983185 -97.99428497 36.89983185 -96.60809326 36.37371826 C-83.11026292 31.24988847 -69.62113017 26.10977419 -56.1887207 20.81640625 C-50.33761247 18.51307715 -44.46279876 16.28365274 -38.56787109 14.09521484 C-34.18414109 12.4617034 -29.83733133 10.7515819 -25.5 9 C-20.08277678 6.81926477 -14.64931405 4.69163234 -9.1875 2.625 C-8.49914062 2.36203125 -7.81078125 2.0990625 -7.1015625 1.828125 C-2.23639113 0 -2.23639113 0 0 0 Z " fill="#248EBE" transform="translate(166,209)"/>
<path d="M0 0 C1.15556987 5.70351446 2.08751447 11.41539939 0 17 C-4.28653545 21.92172695 -10.63217903 24.66302037 -16.34960938 27.59814453 C-20.40944058 29.74548709 -24.21514861 32.24805422 -28.0625 34.75 C-41.09047746 43.01460615 -54.26876873 51.04134858 -67.42578125 59.09814453 C-82.10259345 68.08561669 -96.68518666 77.17655395 -111.0390625 86.671875 C-112.31769361 87.51043912 -113.59633878 88.3489818 -114.875 89.1875 C-115.45282227 89.57478271 -116.03064453 89.96206543 -116.62597656 90.36108398 C-119.33765817 92.13432714 -120.68551469 93 -124 93 C-124 77.82 -124 62.64 -124 47 C-118.3075 44.81375 -112.615 42.6275 -106.75 40.375 C-93.4889658 35.27811738 -80.23734975 30.15807224 -67 25 C-53.92834585 19.9070076 -40.84398925 14.84779885 -27.75 9.8125 C-26.91162598 9.48999268 -26.07325195 9.16748535 -25.20947266 8.83520508 C-22.82212031 7.91701078 -20.4345511 6.99938329 -18.046875 6.08203125 C-17.34947205 5.81389114 -16.65206909 5.54575104 -15.93353271 5.26948547 C-14.61422629 4.76302059 -13.29440098 4.2579048 -11.97399902 3.75430298 C-10.57857397 3.22108424 -9.18493945 2.68316848 -7.79260254 2.14193726 C-2.2218582 0 -2.2218582 0 0 0 Z " fill="#4098C3" transform="translate(166,354)"/>
<path d="M0 0 C0 9.9 0 19.8 0 30 C-3.795 31.52625 -7.59 33.0525 -11.5 34.625 C-12.65951172 35.09244629 -13.81902344 35.55989258 -15.01367188 36.04150391 C-22.20617394 38.92587312 -29.44035301 41.68510253 -36.70068359 44.39257812 C-43.79184764 47.0385623 -50.86174055 49.74088469 -57.93432617 52.43603516 C-59.71155824 53.1132489 -61.48890515 53.79016132 -63.26635742 54.46679688 C-73.63355745 58.41340665 -83.99377398 62.37720288 -94.33984375 66.37890625 C-95.24384415 66.72819687 -96.14784454 67.07748749 -97.07923889 67.43736267 C-101.41715205 69.11354738 -105.7537594 70.79295936 -110.08813477 72.47827148 C-111.64203476 73.07940674 -113.19598688 73.68040727 -114.75 74.28125 C-115.81413368 74.69722191 -115.81413368 74.69722191 -116.89976501 75.12159729 C-121.77288115 77 -121.77288115 77 -124 77 C-124 76.34 -124 75.68 -124 75 C-123.46375 74.82726562 -122.9275 74.65453125 -122.375 74.4765625 C-113.47449821 71.28526416 -105.87751027 66.12269964 -98 61 C-96.5496105 60.06099502 -95.09908931 59.12219343 -93.6484375 58.18359375 C-91.47726458 56.77774036 -89.30658421 55.37115729 -87.13745117 53.9621582 C-81.45088156 50.27327354 -75.69894882 46.70209842 -69.91308594 43.17089844 C-58.35679753 36.09790721 -46.85683495 28.93427829 -35.41162109 21.68310547 C-27.57321425 16.7200365 -19.70333324 11.80765382 -11.83081055 6.89892578 C-10.85539307 6.29032715 -9.87997559 5.68172852 -8.875 5.0546875 C-8.00617188 4.51312012 -7.13734375 3.97155273 -6.2421875 3.41357422 C-0.82763385 0 -0.82763385 0 0 0 Z " fill="#30BAD9" transform="translate(166,226)"/>
</svg>
