<svg width="2450" height="486" viewBox="0 0 2450 486" fill="none" xmlns="http://www.w3.org/2000/svg">
<path d="M697 254V270H849V308H647V180H848.6V218H697V234H821V254H697ZM866.93 180H1074.93V218H866.93V180ZM945.93 215.4H995.93V308H945.93V215.4ZM1141.25 275V240H1241.05C1245.05 240 1248.38 239.4 1251.05 238.2C1253.85 236.867 1255.25 234.133 1255.25 230C1255.25 225.733 1253.85 223 1251.05 221.8C1248.38 220.6 1245.05 220 1241.05 220H1144.45V308H1094.45V180H1233.25C1243.25 180 1252.58 180.733 1261.25 182.2C1270.05 183.533 1277.72 186 1284.25 189.6C1290.78 193.2 1295.92 198.267 1299.65 204.8C1303.38 211.333 1305.25 219.733 1305.25 230C1305.25 240.267 1303.38 248.4 1299.65 254.4C1295.92 260.4 1290.78 264.867 1284.25 267.8C1277.72 270.733 1270.05 272.667 1261.25 273.6C1252.58 274.533 1243.25 275 1233.25 275H1141.25ZM1323.2 261H1377.8C1378.74 263.8 1381.47 266.2 1386 268.2C1390.54 270.067 1396.6 271.533 1404.2 272.6C1411.94 273.533 1420.87 274 1431 274C1441 274 1448.87 273.733 1454.6 273.2C1460.47 272.533 1464.6 271.467 1467 270C1469.4 268.4 1470.6 266.267 1470.6 263.6C1470.6 261.067 1468.67 259.133 1464.8 257.8C1460.94 256.333 1454.07 255.333 1444.2 254.8C1434.34 254.267 1420.47 254 1402.6 254C1389.27 254 1377.74 253.4 1368 252.2C1358.4 250.867 1350.47 248.867 1344.2 246.2C1338.07 243.4 1333.54 239.933 1330.6 235.8C1327.67 231.533 1326.2 226.467 1326.2 220.6C1326.2 210.467 1329.6 202.133 1336.4 195.6C1343.34 188.933 1353.74 184 1367.6 180.8C1381.6 177.467 1399.07 175.8 1420 175.8C1450.67 175.8 1474.07 180.267 1490.2 189.2C1506.47 198 1514.6 210.733 1514.6 227.4H1462.8C1462.14 223 1458 219.667 1450.4 217.4C1442.8 215 1432 213.8 1418 213.8C1404.14 213.8 1393.8 214.6 1387 216.2C1380.34 217.8 1377 220.533 1377 224.4C1377 226.4 1377.94 228 1379.8 229.2C1381.67 230.4 1384.87 231.4 1389.4 232.2C1394.07 232.867 1400.6 233.333 1409 233.6C1417.4 233.867 1428.07 234 1441 234C1455.27 234 1467.4 234.733 1477.4 236.2C1487.4 237.533 1495.47 239.6 1501.6 242.4C1507.87 245.2 1512.4 248.8 1515.2 253.2C1518 257.467 1519.4 262.533 1519.4 268.4C1519.4 278.533 1516.2 286.8 1509.8 293.2C1503.4 299.6 1493.27 304.333 1479.4 307.4C1465.54 310.467 1447.4 312 1425 312C1412.34 312 1400.67 311.267 1390 309.8C1379.47 308.333 1370.07 306.2 1361.8 303.4C1353.54 300.467 1346.54 296.933 1340.8 292.8C1335.07 288.533 1330.67 283.8 1327.6 278.6C1324.67 273.267 1323.2 267.4 1323.2 261ZM1778.34 254.6C1777.67 267.267 1773.07 277.867 1764.54 286.4C1756 294.933 1743.4 301.333 1726.74 305.6C1710.2 309.867 1689.27 312 1663.94 312C1644.6 312 1627.27 310.933 1611.94 308.8C1596.6 306.8 1583.54 303.333 1572.74 298.4C1561.94 293.333 1553.67 286.467 1547.94 277.8C1542.2 269.133 1539.34 258.2 1539.34 245C1539.34 231.8 1542.2 220.8 1547.94 212C1553.67 203.067 1561.94 196 1572.74 190.8C1583.54 185.467 1596.6 181.667 1611.94 179.4C1627.27 177.133 1644.6 176 1663.94 176C1689.27 176 1710.27 178.333 1726.94 183C1743.6 187.533 1756.2 194.267 1764.74 203.2C1773.27 212.133 1777.87 223 1778.54 235.8H1726.54C1724.94 231.533 1722 227.8 1717.74 224.6C1713.47 221.267 1707.07 218.667 1698.54 216.8C1690 214.933 1678.47 214 1663.94 214C1646.87 214 1633 215.067 1622.34 217.2C1611.67 219.2 1603.87 222.467 1598.94 227C1594 231.533 1591.54 237.533 1591.54 245C1591.54 251.8 1594 257.333 1598.94 261.6C1603.87 265.867 1611.67 269 1622.34 271C1633 273 1646.87 274 1663.94 274C1678.47 274 1689.94 273.133 1698.34 271.4C1706.87 269.667 1713.27 267.333 1717.54 264.4C1721.8 261.333 1724.74 258.067 1726.34 254.6H1778.34ZM1825.5 288.6V258.6H1962.3V288.6H1825.5ZM1780.7 308L1866.5 180H1922.1L2008.7 308H1953.7L1879.5 193.4H1909.3L1835.7 308H1780.7ZM2225.33 268.8L2206.73 279.4V180H2256.73V308H2206.73L2056.13 220.8L2074.73 210V308H2024.73V180H2074.73L2225.33 268.8Z" fill="white"/>
<path d="M498.433 33.0095C499.14 33.5313 499.846 34.0532 500.574 34.5909C501.732 35.4436 501.732 35.4436 502.914 36.3136C504.104 37.209 504.104 37.209 505.318 38.1225C506.534 39.0125 506.534 39.0125 507.775 39.9205C512.197 43.2085 512.197 43.2085 513.75 44.6048C513.75 45.2106 513.75 45.8164 513.75 46.4405C514.274 46.6843 514.798 46.928 515.337 47.1791C517.536 48.3363 519.42 49.6559 521.409 51.1446C522.169 51.7127 522.929 52.2809 523.711 52.8662C524.513 53.4718 525.315 54.0774 526.141 54.7013C526.969 55.324 527.797 55.9467 528.65 56.5883C533.923 60.577 539.03 64.6904 544.065 68.9747C547.884 72.1211 551.853 75.0498 555.827 77.996C561.458 82.1844 566.935 86.5495 572.393 90.9603C575.093 93.1883 575.093 93.1883 577.47 94.7679C577.948 95.1761 578.426 95.5843 578.918 96.0049C578.918 96.9136 578.918 97.8223 578.918 98.7585C578.344 98.9788 577.771 99.1992 577.179 99.4262C565.152 104.046 553.129 108.677 541.114 113.329C540.222 113.675 540.222 113.675 539.311 114.027C533.921 116.115 528.531 118.203 523.142 120.292C508.082 126.129 493.014 131.944 477.938 137.738C466.861 141.995 455.791 146.268 444.726 150.558C434.23 154.625 423.721 158.661 413.212 162.698C403.449 166.448 393.692 170.212 383.965 174.056C378.712 176.126 373.431 178.118 368.143 180.095C361.674 182.515 355.221 184.975 348.77 187.444C346.822 188.19 344.873 188.934 342.925 189.678C333.461 193.298 324.019 196.968 314.575 200.641C314.272 214.271 313.969 227.901 313.657 241.944C317.898 240.127 322.138 238.31 326.507 236.437C330.611 234.844 334.717 233.273 338.841 231.733C341.195 230.848 343.548 229.961 345.901 229.073C346.799 228.734 346.799 228.734 347.715 228.389C354.084 225.985 360.432 223.527 366.778 221.063C369.147 220.144 371.516 219.225 373.885 218.306C374.796 217.952 374.796 217.952 375.726 217.592C383.789 214.467 391.863 211.371 399.936 208.27C409.719 204.513 419.496 200.745 429.25 196.912C438.645 193.222 448.078 189.648 457.56 186.188C458.318 185.911 459.077 185.633 459.858 185.348C461.301 184.82 462.745 184.295 464.191 183.773C468.164 182.322 472.078 180.768 475.978 179.128C481.39 176.855 486.856 174.762 492.353 172.703C506.024 167.551 519.655 162.293 533.284 157.03C535.013 156.362 536.742 155.694 538.471 155.027C541.794 153.744 545.117 152.46 548.439 151.177C549.492 150.77 550.546 150.363 551.631 149.945C556.348 148.122 561.061 146.294 565.766 144.442C566.542 144.137 567.317 143.832 568.117 143.518C569.528 142.963 570.938 142.405 572.347 141.844C576.879 140.062 576.879 140.062 578.918 140.062C578.918 170.049 578.918 200.035 578.918 230.93C573.219 233.463 567.551 235.909 561.766 238.216C560.566 238.695 560.566 238.695 559.342 239.185C553.834 241.372 548.302 243.428 542.692 245.34C539.857 246.384 537.089 247.51 534.305 248.681C528.479 251.128 522.591 253.378 516.676 255.598C514.325 256.485 511.974 257.373 509.624 258.261C509.004 258.496 508.385 258.73 507.747 258.971C499.832 261.966 491.933 265.006 484.035 268.046C483.271 268.34 482.506 268.634 481.719 268.937C471.168 272.998 460.622 277.073 450.08 281.159C439.456 285.277 428.821 289.37 418.184 293.456C409.107 296.943 400.033 300.44 390.965 303.954C389.144 304.659 387.322 305.365 385.5 306.07C382.018 307.419 378.537 308.769 375.056 310.121C367.135 313.192 359.209 316.208 351.186 319.005C348.562 319.953 345.997 320.993 343.43 322.085C338.157 324.321 332.829 326.4 327.483 328.453C326.645 328.777 325.807 329.102 324.944 329.436C324.145 329.741 323.347 330.046 322.524 330.36C321.454 330.77 321.454 330.77 320.362 331.189C318.247 331.894 318.247 331.894 313.657 332.812C313.96 346.443 314.263 360.073 314.575 374.116C323.662 370.481 323.662 370.481 332.932 366.773C336.543 365.367 340.155 363.967 343.775 362.585C345.792 361.812 347.809 361.039 349.827 360.266C351.467 359.638 351.467 359.638 353.14 358.997C357.295 357.404 361.449 355.805 365.602 354.206C367.156 353.608 368.71 353.01 370.264 352.412C371.042 352.112 371.82 351.813 372.621 351.505C383.692 347.243 394.766 342.992 405.857 338.786C411.318 336.708 416.739 334.543 422.157 332.358C425.421 331.053 428.706 329.812 432 328.585C442.207 324.772 452.394 320.905 462.58 317.037C463.598 316.65 464.616 316.264 465.664 315.865C479.126 310.751 492.563 305.586 505.952 300.286C514.201 297.022 522.48 293.836 530.757 290.643C531.877 290.211 532.997 289.778 534.151 289.332C535.742 288.719 535.742 288.719 537.365 288.092C540.867 286.725 544.35 285.31 547.824 283.872C549.547 283.248 549.547 283.248 551.383 283.248C549.625 289.106 547.321 294.352 544.499 299.777C543.306 302.155 542.225 304.551 541.192 307.002C539.315 311.436 537.367 315.839 535.435 320.249C535.004 321.238 534.573 322.226 534.13 323.245C531.787 328.587 529.336 333.839 526.694 339.039C525.316 341.81 524.117 344.642 522.929 347.498C519.485 355.497 515.956 363.453 512.28 371.348C511.067 373.964 509.882 376.591 508.702 379.222C508.122 380.439 508.122 380.439 507.53 381.681C506.344 384.22 506.344 384.22 505.543 387.031C503.827 391.804 501.971 394.934 497.369 397.199C493.435 398.868 489.401 400.236 485.352 401.597C480.26 403.36 475.273 405.396 470.267 407.388C468.059 408.256 465.85 409.122 463.641 409.988C456.814 412.672 450 415.389 443.19 418.116C442.618 418.345 442.047 418.573 441.458 418.809C435.151 421.334 428.846 423.865 422.545 426.405C351.68 454.935 351.68 454.935 322.875 455.074C322.01 455.079 321.145 455.084 320.254 455.09C318.427 455.098 316.599 455.104 314.772 455.108C312.037 455.117 309.302 455.145 306.567 455.174C291.459 455.259 277.14 453.522 262.544 449.552C261.654 449.313 260.763 449.074 259.846 448.827C239.37 443.191 219.835 434.287 202.596 421.845C201.688 421.239 200.779 420.633 199.843 420.009C199.558 417.658 199.456 415.525 199.469 413.17C199.462 412.456 199.455 411.743 199.448 411.007C199.428 408.601 199.428 406.196 199.428 403.79C199.419 402.069 199.408 400.349 199.396 398.629C199.367 393.94 199.357 389.251 199.352 384.562C199.348 381.625 199.34 378.689 199.331 375.752C199.3 365.486 199.285 355.219 199.282 344.953C199.279 335.424 199.243 325.896 199.189 316.368C199.145 308.166 199.126 299.964 199.126 291.761C199.126 286.873 199.116 281.985 199.079 277.097C198.809 238.18 198.809 238.18 206.268 220.834C206.696 219.716 207.123 218.598 207.564 217.446C208.49 215.032 209.497 212.687 210.57 210.336C210.905 209.573 211.239 208.811 211.583 208.025C215.662 198.799 220.48 190.083 225.543 181.366C226.019 180.536 226.494 179.707 226.984 178.852C233.452 167.773 241.586 158.047 249.789 148.232C250.716 147.119 251.638 146.002 252.553 144.878C254.459 142.545 256.297 140.396 258.701 138.571C260.955 136.708 262.379 135.033 264.093 132.719C264.699 132.719 265.305 132.719 265.929 132.719C265.929 132.113 265.929 131.508 265.929 130.884C270.955 126.294 270.955 126.294 273.272 126.294C273.272 125.688 273.272 125.083 273.272 124.459C275.014 122.874 275.014 122.874 277.287 121.131C278.033 120.552 278.778 119.972 279.546 119.374C281.532 118.033 281.532 118.033 283.368 118.033C283.368 117.428 283.368 116.822 283.368 116.198C284.933 114.926 284.933 114.926 287.133 113.466C287.936 112.929 288.74 112.393 289.568 111.84C290.437 111.272 291.307 110.703 292.202 110.117C293.087 109.535 293.972 108.952 294.884 108.352C321.647 90.8656 350.968 80.323 381.03 69.9607C388.812 67.276 396.585 64.5675 404.357 61.8519C405.929 61.3026 407.502 60.7538 409.075 60.2057C418.066 57.0726 427.024 53.8677 435.951 50.5581C442.308 48.2065 448.704 45.9838 455.122 43.8017C461.917 41.4865 468.696 39.148 475.423 36.6417C476.468 36.2541 477.514 35.8664 478.592 35.467C480.569 34.7301 482.542 33.9839 484.512 33.2271C485.396 32.8986 486.279 32.5701 487.19 32.2317C487.958 31.9392 488.726 31.6467 489.517 31.3454C493.046 30.5315 495.345 31.1837 498.433 33.0095Z" fill="#FE984B"/>
<path d="M498.433 33.0095C499.139 33.5313 499.846 34.0532 500.574 34.5909C501.732 35.4436 501.732 35.4436 502.914 36.3136C504.104 37.209 504.104 37.209 505.318 38.1225C506.534 39.0125 506.534 39.0125 507.775 39.9205C512.197 43.2085 512.197 43.2085 513.75 44.6048C513.75 45.2106 513.75 45.8164 513.75 46.4405C514.274 46.6843 514.797 46.928 515.337 47.1791C517.536 48.3363 519.42 49.6559 521.409 51.1446C522.169 51.7127 522.929 52.2809 523.711 52.8662C524.513 53.4718 525.315 54.0774 526.141 54.7013C526.969 55.324 527.797 55.9467 528.65 56.5883C533.923 60.577 539.03 64.6904 544.065 68.9747C547.884 72.1211 551.853 75.0498 555.827 77.996C561.458 82.1844 566.935 86.5495 572.393 90.9603C575.093 93.1883 575.093 93.1883 577.47 94.7679C577.948 95.1761 578.426 95.5843 578.918 96.0049C578.918 96.9136 578.918 97.8223 578.918 98.7585C578.344 98.9788 577.77 99.1992 577.179 99.4262C565.152 104.046 553.129 108.677 541.114 113.329C540.222 113.675 540.222 113.675 539.311 114.027C533.921 116.115 528.531 118.203 523.142 120.292C508.082 126.129 493.014 131.944 477.938 137.738C466.861 141.995 455.791 146.268 444.726 150.558C434.23 154.625 423.721 158.661 413.212 162.698C403.449 166.448 393.692 170.212 383.965 174.056C378.712 176.126 373.431 178.118 368.143 180.095C361.674 182.515 355.221 184.975 348.77 187.444C346.822 188.19 344.873 188.934 342.925 189.678C333.461 193.298 324.019 196.968 314.575 200.641C314.272 214.574 313.969 228.507 313.657 242.862C310.174 244.263 306.691 245.664 303.102 247.107C302.038 247.536 300.973 247.965 299.877 248.407C293.275 251.055 286.635 253.587 279.971 256.073C273.463 258.501 266.973 260.982 260.482 263.455C258.85 264.077 257.219 264.698 255.588 265.319C246.072 268.942 236.563 272.58 227.067 276.253C226.237 276.573 225.407 276.894 224.552 277.224C220.571 278.763 216.59 280.304 212.612 281.851C211.186 282.403 209.759 282.955 208.333 283.506C207.356 283.888 207.356 283.888 206.36 284.277C201.887 286.002 201.887 286.002 199.843 286.002C198.492 238.174 198.492 238.174 206.268 220.834C206.985 219.081 207.697 217.327 208.405 215.57C213.288 203.658 219.081 192.492 225.543 181.366C226.018 180.536 226.494 179.707 226.984 178.852C233.452 167.773 241.586 158.047 249.789 148.232C250.716 147.119 251.638 146.002 252.553 144.878C254.459 142.545 256.297 140.396 258.7 138.571C260.955 136.708 262.379 135.033 264.093 132.719C264.699 132.719 265.304 132.719 265.929 132.719C265.929 132.113 265.929 131.508 265.929 130.884C270.955 126.294 270.955 126.294 273.271 126.294C273.271 125.688 273.271 125.083 273.271 124.458C275.014 122.874 275.014 122.874 277.287 121.131C278.033 120.552 278.778 119.972 279.546 119.374C281.532 118.033 281.532 118.033 283.368 118.033C283.368 117.428 283.368 116.822 283.368 116.198C284.933 114.926 284.933 114.926 287.133 113.466C287.936 112.929 288.74 112.393 289.567 111.84C290.437 111.272 291.306 110.703 292.202 110.117C293.087 109.535 293.972 108.952 294.884 108.352C321.647 90.8656 350.968 80.323 381.03 69.9607C388.812 67.276 396.585 64.5675 404.357 61.8519C405.929 61.3026 407.502 60.7538 409.075 60.2057C418.066 57.0726 427.024 53.8677 435.95 50.5581C442.308 48.2065 448.704 45.9838 455.122 43.8017C461.917 41.4865 468.696 39.148 475.423 36.6417C476.468 36.2541 477.514 35.8664 478.592 35.467C480.569 34.7301 482.542 33.9839 484.512 33.2271C485.396 32.8986 486.279 32.5701 487.19 32.2317C487.958 31.9392 488.726 31.6467 489.517 31.3454C493.046 30.5315 495.345 31.1837 498.433 33.0095Z" fill="#61CBE2"/>
<path d="M551.383 283.248C549.625 289.106 547.321 294.352 544.499 299.776C543.306 302.155 542.225 304.551 541.192 307.002C539.315 311.436 537.367 315.839 535.435 320.249C535.004 321.238 534.573 322.226 534.13 323.245C531.787 328.587 529.336 333.839 526.694 339.039C525.316 341.81 524.117 344.642 522.929 347.498C519.485 355.497 515.956 363.452 512.28 371.348C511.067 373.964 509.882 376.591 508.702 379.221C508.122 380.439 508.122 380.439 507.53 381.681C506.344 384.22 506.344 384.22 505.543 387.03C503.827 391.804 501.971 394.933 497.369 397.198C493.435 398.868 489.401 400.235 485.352 401.596C480.26 403.36 475.273 405.396 470.267 407.388C468.059 408.255 465.85 409.122 463.641 409.988C456.814 412.672 450 415.389 443.19 418.116C442.618 418.344 442.047 418.573 441.458 418.809C435.151 421.334 428.847 423.865 422.545 426.405C351.68 454.935 351.68 454.935 322.875 455.074C322.01 455.079 321.145 455.084 320.254 455.09C318.427 455.098 316.599 455.104 314.772 455.108C312.037 455.117 309.302 455.145 306.567 455.174C291.459 455.259 277.14 453.522 262.544 449.552C261.654 449.313 260.763 449.074 259.846 448.827C239.37 443.191 219.835 434.287 202.596 421.844C201.688 421.239 200.779 420.633 199.843 420.009C199.512 418.115 199.512 418.115 199.53 415.756C199.53 414.874 199.531 413.992 199.531 413.083C199.545 412.129 199.559 411.175 199.574 410.192C199.578 409.217 199.582 408.241 199.586 407.236C199.601 404.113 199.636 400.989 199.671 397.865C199.685 395.751 199.697 393.637 199.708 391.523C199.739 386.332 199.785 381.142 199.843 375.951C200.754 375.602 201.666 375.252 202.605 374.892C218.469 368.802 234.33 362.706 250.164 356.537C256.335 354.132 262.509 351.733 268.682 349.334C269.457 349.032 270.232 348.731 271.031 348.421C275.918 346.522 280.807 344.627 285.698 342.737C287.259 342.133 288.82 341.528 290.38 340.922C292.557 340.076 294.735 339.235 296.914 338.395C297.544 338.148 298.175 337.902 298.825 337.649C303.734 335.764 308.577 334.336 313.657 332.812C313.96 346.442 314.263 360.073 314.575 374.116C320.633 371.693 326.691 369.269 332.932 366.773C336.543 365.367 340.155 363.967 343.775 362.585C345.792 361.812 347.809 361.039 349.827 360.265C350.92 359.847 352.013 359.428 353.14 358.997C357.295 357.404 361.449 355.805 365.602 354.206C367.156 353.608 368.71 353.01 370.264 352.412C371.042 352.112 371.82 351.813 372.621 351.504C383.692 347.243 394.766 342.992 405.857 338.785C411.318 336.708 416.739 334.543 422.157 332.358C425.421 331.053 428.706 329.812 432 328.585C442.207 324.772 452.394 320.905 462.58 317.036C463.598 316.65 464.616 316.263 465.665 315.865C479.126 310.751 492.563 305.586 505.952 300.286C514.201 297.022 522.48 293.835 530.757 290.643C531.877 290.21 532.997 289.778 534.151 289.332C535.212 288.923 536.272 288.514 537.365 288.092C540.867 286.724 544.35 285.31 547.824 283.871C549.547 283.248 549.547 283.248 551.383 283.248Z" fill="#5FCBE2"/>
<path d="M313.657 199.723C313.657 213.959 313.657 228.195 313.657 242.862C310.174 244.263 306.691 245.664 303.102 247.107C302.038 247.536 300.973 247.965 299.877 248.407C293.275 251.055 286.635 253.587 279.971 256.072C273.463 258.501 266.973 260.981 260.482 263.455C258.851 264.077 257.219 264.698 255.588 265.319C246.072 268.941 236.563 272.58 227.067 276.253C226.237 276.573 225.407 276.894 224.552 277.224C220.571 278.763 216.59 280.304 212.612 281.851C211.186 282.403 209.759 282.954 208.333 283.506C207.356 283.888 207.356 283.888 206.36 284.277C201.887 286.001 201.887 286.001 199.843 286.001C199.843 271.765 199.843 257.529 199.843 242.862C205.751 240.499 211.659 238.163 217.608 235.91C219.227 235.295 220.846 234.68 222.465 234.065C223.712 233.591 223.712 233.591 224.985 233.109C237.374 228.406 249.755 223.688 262.084 218.829C267.455 216.715 272.847 214.669 278.257 212.66C282.281 211.161 286.271 209.591 290.252 207.983C295.224 205.982 300.211 204.029 305.224 202.132C305.856 201.891 306.488 201.649 307.139 201.401C311.605 199.723 311.605 199.723 313.657 199.723Z" fill="#248EBE"/>
<path d="M313.657 332.812C314.718 338.047 315.573 343.29 313.657 348.416C309.723 352.933 303.898 355.449 298.651 358.143C294.924 360.114 291.431 362.411 287.9 364.708C275.942 372.294 263.846 379.661 251.77 387.056C238.299 395.305 224.914 403.649 211.739 412.365C210.566 413.134 209.392 413.904 208.218 414.674C207.688 415.029 207.158 415.385 206.611 415.751C204.122 417.379 202.885 418.173 199.843 418.173C199.843 404.24 199.843 390.307 199.843 375.952C205.068 373.945 210.293 371.938 215.676 369.871C227.848 365.193 240.011 360.493 252.161 355.759C264.159 351.084 276.168 346.44 288.187 341.819C288.956 341.523 289.726 341.227 290.519 340.922C292.71 340.079 294.901 339.237 297.093 338.395C297.733 338.149 298.373 337.902 299.033 337.649C300.244 337.184 301.455 336.72 302.667 336.258C303.948 335.769 305.227 335.275 306.505 334.778C311.618 332.812 311.618 332.812 313.657 332.812Z" fill="#4098C3"/>
<path d="M313.657 215.326C313.657 224.413 313.657 233.5 313.657 242.862C310.174 244.263 306.691 245.664 303.102 247.107C302.038 247.536 300.973 247.965 299.877 248.407C293.275 251.055 286.635 253.587 279.971 256.073C273.463 258.501 266.973 260.981 260.482 263.455C258.851 264.077 257.219 264.698 255.588 265.319C246.072 268.942 236.563 272.58 227.067 276.253C226.237 276.573 225.407 276.894 224.552 277.224C220.571 278.763 216.59 280.304 212.612 281.851C211.186 282.403 209.759 282.955 208.333 283.506C207.356 283.888 207.356 283.888 206.36 284.277C201.887 286.002 201.887 286.002 199.843 286.002C199.843 285.396 199.843 284.79 199.843 284.166C200.335 284.007 200.827 283.849 201.334 283.685C209.504 280.756 216.477 276.018 223.707 271.316C225.038 270.454 226.37 269.592 227.701 268.731C229.694 267.44 231.687 266.149 233.677 264.856C238.897 261.47 244.176 258.192 249.487 254.951C260.094 248.459 270.649 241.884 281.154 235.228C288.349 230.673 295.572 226.164 302.798 221.659C303.694 221.1 304.589 220.541 305.511 219.966C306.309 219.469 307.106 218.972 307.928 218.46C312.898 215.326 312.898 215.326 313.657 215.326Z" fill="#30BAD9"/>
</svg>
