<?xml version="1.0" encoding="UTF-8"?>
<svg version="1.1" xmlns="http://www.w3.org/2000/svg" width="2173" height="410">
<path d="M0 0 C1.90684449 0.49261345 3.82332709 0.94742654 5.73974609 1.40136719 C28.55000863 7.02581548 49.25230104 17.37338365 67.94677734 31.50292969 C68.93677734 32.16292969 69.92677734 32.82292969 70.94677734 33.50292969 C70.32829441 36.73038428 69.22344084 38.83451731 67.31396484 41.49511719 C66.7617627 42.27274414 66.20956055 43.05037109 65.640625 43.8515625 C64.74029541 45.10211426 64.74029541 45.10211426 63.82177734 46.37792969 C62.55485274 48.16086109 61.28927881 49.94475286 60.02490234 51.72949219 C59.36167969 52.66438477 58.69845703 53.59927734 58.01513672 54.5625 C54.4795581 59.58876403 51.02581237 64.67043317 47.57177734 69.75292969 C46.58153564 71.20868408 46.58153564 71.20868408 45.57128906 72.69384766 C44.02869426 74.96280394 42.48713254 77.23245264 40.94677734 79.50292969 C37.50074953 77.86855377 35.05141716 75.92228257 32.19677734 73.37792969 C6.27314704 51.95827229 -35.74851129 44.74685701 -68.50146484 47.72558594 C-83.72888547 49.44921585 -99.8561408 51.99786634 -110.05322266 64.50292969 C-113.17493365 69.5972556 -113.62053367 74.6407159 -113.05322266 80.50292969 C-110.48845992 87.52228034 -105.67564421 90.35449548 -99.27758789 93.49951172 C-95.6673544 95.1280991 -91.98272155 96.29196534 -88.17822266 97.37792969 C-87.29602051 97.62986084 -86.41381836 97.88179199 -85.50488281 98.14135742 C-72.61785196 101.63443815 -59.37496404 103.59572108 -46.22070312 105.80029297 C38.14454879 119.97163532 38.14454879 119.97163532 60.78662109 151.02636719 C71.32118516 166.57208752 73.07820382 185.321603 70.45068359 203.63574219 C66.34581988 224.36878262 54.76437926 240.78677174 37.82177734 253.19042969 C12.0080385 270.33899329 -21.9209954 274.80051418 -52.05322266 269.50292969 C-65.7476671 266.61204311 -78.72563012 261.87136296 -91.74072266 256.81542969 C-94.38254076 255.79595482 -97.02542789 254.77947007 -99.67036438 253.76811218 C-101.29406919 253.14661781 -102.91596252 252.52035948 -104.53556824 251.88825989 C-115.8663378 247.53288506 -128.78094884 244.75432951 -140.55322266 249.12792969 C-150.06072812 253.72375044 -161.24922952 262.89494341 -166.05322266 272.50292969 C-166.71322266 272.50292969 -167.37322266 272.50292969 -168.05322266 272.50292969 C-168.41643426 264.15016843 -168.7242572 255.79794149 -168.9624958 247.44077206 C-169.07485694 243.55957999 -169.20586102 239.68093608 -169.38037109 235.80200195 C-169.54825527 232.05476615 -169.66598768 228.30892549 -169.74981308 224.55890083 C-169.79036949 223.13223565 -169.84865652 221.70595575 -169.9253273 220.28077507 C-170.50833395 209.12300438 -170.50833395 209.12300438 -166.88166809 205.08518982 C-164.34020064 203.27959775 -161.86314831 201.84380441 -159.05322266 200.50292969 C-157.53535156 199.65794922 -157.53535156 199.65794922 -155.98681641 198.79589844 C-154.75125 198.24869141 -154.75125 198.24869141 -153.49072266 197.69042969 C-152.66443359 197.31273437 -151.83814453 196.93503906 -150.98681641 196.54589844 C-143.77350678 193.98137957 -136.86727974 193.16061516 -129.24072266 193.19042969 C-128.42796875 193.17431641 -127.61521484 193.15820312 -126.77783203 193.14160156 C-114.96532804 193.13235136 -104.00707333 197.38412724 -92.99072266 201.25292969 C-91.70958869 201.69800666 -90.42833722 202.14274554 -89.14697266 202.5871582 C-82.70296897 204.82958099 -76.2877794 207.13725777 -69.90649414 209.55249023 C-50.30517268 216.94848631 -26.31926423 221.21655403 -6.09228516 213.05761719 C0.65749486 209.7367872 6.20216165 206.93945825 8.94677734 199.50292969 C10.88281759 193.36145103 10.7175735 186.27779584 9.00927734 180.12792969 C-2.39128196 165.61812693 -26.23985804 163.50828788 -43.05322266 160.50292969 C-43.85590576 160.35942078 -44.65858887 160.21591187 -45.4855957 160.0680542 C-47.25203509 159.75240508 -49.01848973 159.43684127 -50.78495789 159.12135315 C-142.88065194 142.66886086 -142.88065194 142.66886086 -165.05322266 111.50292969 C-170.92511457 102.22109572 -173.42929775 91.39325533 -174.05322266 80.50292969 C-174.10607422 79.69855469 -174.15892578 78.89417969 -174.21337891 78.06542969 C-174.89741753 58.07960543 -167.50633965 40.82771966 -154.74072266 25.77636719 C-117.92245153 -13.34304588 -47.92708139 -12.45800262 0 0 Z " fill="#EDEDED" transform="translate(1101.05322265625,74.4970703125)"/>
<path d="M0 0 C0.99 0.33 1.98 0.66 3 1 C3.11084042 8.54453022 3.14324877 16.08652974 3.12207031 23.63183594 C3.12401265 26.1963652 3.14367115 28.76094641 3.18164062 31.32519531 C3.23324224 35.02044438 3.22035786 38.71082103 3.1953125 42.40625 C3.22505157 43.5461438 3.25479065 44.6860376 3.28543091 45.86047363 C3.19928069 50.69227169 3.08064432 53.7675972 -0.18179321 57.4881897 C-4.64886824 61.12049772 -9.35747699 64.06795828 -14.625 66.375 C-15.64851563 66.83648437 -16.67203125 67.29796875 -17.7265625 67.7734375 C-37.82431581 75.30409924 -59.30728115 70.3937065 -79.50341797 65.77392578 C-105.17016396 60.09290464 -134.61038759 54.77556418 -158.4140625 69.046875 C-178.7725198 82.29063007 -188.08943756 101.81925673 -193 125 C-196.93212221 147.66144113 -192.8187697 171.37763199 -179.8359375 190.51171875 C-167.70532194 206.95257431 -148.14130322 219.15166068 -127.76708984 222.35058594 C-97.92348308 226.4231899 -70.93796241 222.22819144 -46.40625 203.75390625 C-38.88792412 197.83774078 -32.1095818 191.10816266 -27 183 C-21.74731325 184.56659079 -18.1543981 187.95449332 -14.0625 191.4375 C-12.54403533 192.70960755 -11.02448817 193.980424 -9.50390625 195.25 C-8.7473877 195.88292969 -7.99086914 196.51585937 -7.21142578 197.16796875 C-4.0176317 199.81383216 -0.76858568 202.38495062 2.5 204.9375 C3.0679126 205.38125977 3.6358252 205.82501953 4.22094727 206.28222656 C5.81253334 207.52332233 7.40621906 208.76172408 9 210 C9.94617187 210.73734375 10.89234375 211.4746875 11.8671875 212.234375 C13.90974154 213.82514917 15.95379816 215.41392291 18 217 C17.11921151 221.49384364 14.5758892 224.25750395 11.625 227.625 C11.08407715 228.24600586 10.5431543 228.86701172 9.98583984 229.50683594 C-16.7789072 259.76263694 -56.96549552 277.925003 -97 281 C-138.9598652 283.13827034 -179.35964582 270.34569728 -211.125 242.625 C-238.6712503 217.14691865 -253.58514255 184.01444251 -255.22265625 146.58203125 C-256.23529676 109.96936349 -246.17607749 73.99589774 -222 46 C-221.06414062 44.86498047 -221.06414062 44.86498047 -220.109375 43.70703125 C-200.54217461 20.60023567 -171.42216242 8.1068435 -142 4 C-141.113125 3.86851563 -140.22625 3.73703125 -139.3125 3.6015625 C-119.96300366 1.18287546 -100.68193425 4.05363932 -81.78515625 8.16796875 C-80.87345169 8.36637863 -79.96174713 8.56478851 -79.02241516 8.76921082 C-74.42943553 9.77503265 -69.84282603 10.80341433 -65.26196289 11.86303711 C-47.21650155 15.96771642 -28.57372229 19.38323971 -12 9 C-8.7955342 6.62413994 -5.66472645 4.20790072 -2.56640625 1.6953125 C-1.71949219 1.13585937 -0.87257813 0.57640625 0 0 Z " fill="#EDEDED" transform="translate(1436,64)"/>
<path d="M0 0 C80.36429608 0 80.36429608 0 105 23 C127.95842508 47.38874229 137.54475113 80.3571017 147.77368164 111.42776489 C160.48662317 151.36544165 160.48662317 151.36544165 182 187 C182.54011719 187.70511719 183.08023437 188.41023437 183.63671875 189.13671875 C193.72017547 201.56402981 207.36705638 208.62300452 223 211 C227.11697446 211.3035081 231.22449808 211.3703127 235.3515625 211.4140625 C236.86979614 211.44052856 236.86979614 211.44052856 238.41870117 211.4675293 C242.15398063 211.52999404 245.88951189 211.57659442 249.625 211.625 C257.99875 211.74875 266.3725 211.8725 275 212 C275 229.16 275 246.32 275 264 C267.26649416 264.06953202 259.53410857 264.12906414 251.80053711 264.16479492 C249.17940561 264.1797178 246.55829834 264.20006335 243.93725586 264.22631836 C207.07829407 264.58581483 176.33003653 259.38397563 148.875 233.3125 C122.88102893 206.34797482 110.09848777 168.37134884 98.25097656 133.65966797 C85.42129363 91.14917482 85.42129363 91.14917482 57 59 C57 126.65 57 194.3 57 264 C38.19 264 19.38 264 0 264 C0 176.88 0 89.76 0 0 Z " fill="#EDEDED" transform="translate(1793,74)"/>
<path d="M0 0 C18.31674235 -0.04532725 36.63343857 -0.08209347 54.95022297 -0.10362434 C63.45698888 -0.1138918 71.96371721 -0.12786431 80.47045898 -0.15087891 C87.89384161 -0.17095277 95.31719699 -0.18374926 102.74060601 -0.18817699 C106.66314236 -0.19076094 110.58560083 -0.19673707 114.50811195 -0.21146011 C148.80723866 -0.33488299 178.99936431 0.46646808 205.0625 25.625 C220.23305184 40.77883629 228.02532076 61.93014051 228.19042969 83.18432617 C228.16513833 109.11007671 221.49906717 130.87189258 203.375 150.125 C185.7841379 167.07032587 163.07123515 173.59513775 139.125 174.3125 C121.63634261 173.84047146 104.88763076 169.11009801 88.09648132 164.6348114 C77.64243096 161.85475532 67.86021044 159.98729186 57 159 C57 193.65 57 228.3 57 264 C38.19 264 19.38 264 0 264 C0 216.81 0 169.62 0 121 C10.14712715 116.49016571 10.14712715 116.49016571 14.015625 115.3671875 C15.29240112 114.9952124 15.29240112 114.9952124 16.5949707 114.61572266 C42.32376545 107.43768466 65.87410101 107.47786825 91.71484375 113.91015625 C94.60133894 114.62850762 97.48802229 115.34609011 100.375 116.0625 C101.09841583 116.24231415 101.82183167 116.4221283 102.56716919 116.60739136 C130.02927119 123.46629187 130.02927119 123.46629187 156.8359375 117.04296875 C164.01021148 112.60995666 168.18498302 104.39130732 170.53125 96.47265625 C172.33028451 86.9827492 171.79469096 75.90928973 166.46484375 67.609375 C165.41568695 66.23034148 164.33266642 64.87594294 163.20703125 63.55859375 C162 62 162 62 162 60 C161.12214844 59.566875 161.12214844 59.566875 160.2265625 59.125 C158.87489288 58.44205114 157.5328573 57.73888967 156.2109375 57 C146.63459054 51.78394719 136.71381197 51.69930837 126.01318359 51.68115234 C124.63240992 51.67183481 123.2516418 51.66166348 121.87088013 51.65071106 C118.15259428 51.62360244 114.43434591 51.60831903 110.71598768 51.59528303 C106.81888541 51.57956795 102.92185873 51.55280481 99.02481079 51.5272522 C91.65865125 51.48061183 84.29247725 51.44379676 76.92624629 51.41057932 C68.53434962 51.37225326 60.14252915 51.32287084 51.7506969 51.27259517 C34.50051431 51.16949476 17.25029962 51.08162288 0 51 C0 34.17 0 17.34 0 0 Z " fill="#EDEDED" transform="translate(672,74)"/>
<path d="M0 0 C6.99145261 -0.304986 13.98118686 -0.51467167 20.9777832 -0.65917969 C23.35571367 -0.71942556 25.73320138 -0.80124689 28.10961914 -0.90527344 C47.68889505 -1.74069956 47.68889505 -1.74069956 52.87060547 2.16210938 C54.78455159 5.37358159 55.86296952 8.44067277 57 12 C57.91158504 13.95247316 58.89752064 15.85329201 59.89768982 17.76173401 C60.95671754 19.78349177 61.97031819 21.82264009 62.97363281 23.87255859 C64.94324175 27.88780352 66.93377723 31.89230788 68.9296875 35.89453125 C69.58056992 37.20149565 70.23144881 38.5084618 70.88232422 39.81542969 C76.14797402 50.38065283 81.42643426 60.92766133 86.99169922 71.33911133 C91.4872008 79.81182917 95.72543336 88.41450124 100 97 C106.83245013 110.75735575 106.83245013 110.75735575 113.9375 124.375 C119.44372403 134.6546053 124.57759974 145.12366636 129.77548218 155.56121826 C134.53633173 165.1177979 139.31871959 174.65142284 144.35546875 184.06640625 C148.55632992 191.95937378 152.50510747 199.97909629 156.48684692 207.98394775 C160.30587794 215.65815616 164.1591396 223.30782249 168.1875 230.875 C172.08506925 238.19765597 175.8474346 245.58306854 179.5625 253 C180.08803467 254.04655762 180.61356934 255.09311523 181.1550293 256.17138672 C181.64140869 257.1460791 182.12778809 258.12077148 182.62890625 259.125 C183.06275635 259.99382812 183.49660645 260.86265625 183.94360352 261.7578125 C185 264 185 264 186 267 C165.87 267 145.74 267 125 267 C119.23988567 256.05578277 113.48272613 245.11514342 107.8125 234.125 C107.17308871 232.88700585 106.53360078 231.64905128 105.89404297 230.41113281 C104.57801599 227.86374701 103.26230603 225.31619784 101.94677734 222.76855469 C100.06680726 219.1285055 98.18410354 215.48987849 96.30078125 211.8515625 C89.66567827 199.03322842 83.04415216 186.20802261 76.4375 173.375 C70.703807 162.2377963 64.9550484 151.108656 59.18310547 139.99121094 C56.12968098 134.10956412 53.08187524 128.22509446 50.04296875 122.3359375 C49.37191932 121.03612673 48.70085819 119.73632202 48.02978516 118.43652344 C46.76395183 115.98465544 45.49949316 113.53209552 44.23583984 111.07910156 C40.23997948 103.33968107 36.1534735 95.65566971 32 88 C28.45422268 91.40654523 26.00018342 95.04618318 23.5 99.25 C19.56136055 105.71456219 15.28617846 111.7712482 10.68261719 117.77514648 C6.08939805 123.79660176 1.82092966 130.01351244 -2.42285156 136.28442383 C-5.22509326 140.42064405 -8.06704321 144.49985584 -11.0625 148.5 C-37.62299717 184.76958647 -50.96216551 222.16764119 -53 267 C-72.47 267 -91.94 267 -112 267 C-110.82336957 238.76086957 -110.82336957 238.76086957 -109.4375 231 C-109.26822998 230.02836914 -109.09895996 229.05673828 -108.92456055 228.05566406 C-100.72923077 184.57537161 -75.1488811 147.76335059 -49.42041016 112.85693359 C-33.9419133 91.83034963 -18.85748169 70.16293034 -8.5625 46.0625 C-8.24418213 45.31774414 -7.92586426 44.57298828 -7.59790039 43.80566406 C-3.3357087 33.42396149 -1.49705484 23.49774933 -0.8125 12.3125 C-0.73064453 11.12205078 -0.64878906 9.93160156 -0.56445312 8.70507812 C-0.36637948 5.80388174 -0.18036937 2.90233355 0 0 Z " fill="#EDEDED" transform="translate(1586,71)"/>
<path d="M0 0 C0 18.48 0 36.96 0 56 C-17.73748783 64.27749432 -17.73748783 64.27749432 -27 67.1875 C-28.58506348 67.68938843 -28.58506348 67.68938843 -30.20214844 68.20141602 C-44.96997616 72.70843752 -60.54057465 75.59494955 -76 76 C-76.80888672 76.02578125 -77.61777344 76.0515625 -78.45117188 76.078125 C-113.39735788 77.07020977 -146.16818993 68.90556175 -179.92529297 60.82275391 C-216.28468926 52.12883082 -249.84917205 52.07553245 -283.3046875 69.6796875 C-286 71 -286 71 -288 71 C-288 53.18 -288 35.36 -288 17 C-281.73545781 14.49418312 -275.82729558 12.18633487 -269.375 10.4375 C-268.22547852 10.12280762 -268.22547852 10.12280762 -267.05273438 9.80175781 C-251.83616182 5.73774317 -236.80666672 3.82157445 -221.0625 3.8125 C-219.97904297 3.80025391 -218.89558594 3.78800781 -217.77929688 3.77539062 C-202.19341685 3.74828475 -187.04471897 5.89953998 -171.84094238 9.17059326 C-169.35252571 9.70577536 -166.86172729 10.22843486 -164.37011719 10.74853516 C-157.64466002 12.15552857 -150.92473206 13.58820734 -144.20556641 15.02490234 C-93.81999614 25.78975043 -50.20658263 25.6520126 -3.74560547 0.80688477 C-2 0 -2 0 0 0 Z " fill="#EDEDED" transform="translate(648,68)"/>
<path d="M0 0 C2.63877848 1.28941011 4.91735738 2.59322456 7.21484375 4.42578125 C15.06759156 10.54006977 22.29335099 15.25807412 32 18 C33.11246094 18.31582031 34.22492188 18.63164062 35.37109375 18.95703125 C42.8886691 20.76026126 50.16724156 21.29665687 57.875 21.375 C58.72312256 21.38893799 59.57124512 21.40287598 60.44506836 21.41723633 C77.48774403 21.29446656 94.39001436 16.1045992 110.8125 12.0625 C135.23093586 6.06289783 135.23093586 6.06289783 147.01171875 3.68359375 C147.79319778 3.52448013 148.57467682 3.36536652 149.37983704 3.20143127 C175.58927943 -1.94220576 201.43998532 1.13516679 224 16 C224.86764984 16.53665283 225.73529968 17.07330566 226.62924194 17.6262207 C233.47283934 22.33683074 233.47283934 22.33683074 234.87481689 26.76000977 C235.15565869 30.00953427 235.12697077 33.11690743 234.9765625 36.375 C234.96241302 37.5400708 234.94826355 38.7051416 234.9336853 39.90551758 C234.87795167 43.60635504 234.75255135 47.30101099 234.625 51 C234.57481216 53.51683929 234.52918957 56.03377403 234.48828125 58.55078125 C234.37836066 64.70260985 234.2113023 70.85086341 234 77 C228.48711199 73.50621558 222.99317434 69.99544956 217.5625 66.375 C195.32595049 52.32754804 168.53439363 51.85908476 143.51481628 57.36683655 C133.75098957 59.58068245 124.03569376 62.00063082 114.32171631 64.42211914 C79.38745364 73.11734244 79.38745364 73.11734244 63 74 C61.9996875 74.05800781 60.999375 74.11601562 59.96875 74.17578125 C42.0674867 74.67596361 25.25266452 70.40669554 10 61 C9.18106766 60.57281677 8.36213531 60.14563354 7.51838684 59.70550537 C0.53036721 55.63423375 0.53036721 55.63423375 -0.88072205 51.28620911 C-1.15747292 47.98310008 -1.12582114 44.81527842 -0.9765625 41.50390625 C-0.96241302 40.31522446 -0.94826355 39.12654266 -0.9336853 37.90184021 C-0.87787339 34.11945604 -0.75245423 30.34308104 -0.625 26.5625 C-0.57482246 23.99292433 -0.52919807 21.42325544 -0.48828125 18.85351562 C-0.37825583 12.56697352 -0.21111545 6.28391594 0 0 Z " fill="#EDEDED" transform="translate(105,166)"/>
<path d="M0 0 C77.88 0 155.76 0 236 0 C236 16.83 236 33.66 236 51 C158.12 51 80.24 51 0 51 C0 34.17 0 17.34 0 0 Z " fill="#EDEDED" transform="translate(105,287)"/>
<path d="M0 0 C77.22 0 154.44 0 234 0 C234 16.83 234 33.66 234 51 C156.78 51 79.56 51 0 51 C0 34.17 0 17.34 0 0 Z " fill="#EDEDED" transform="translate(105,74)"/>
<path d="M0 0 C18.48 0 36.96 0 56 0 C56 63.36 56 126.72 56 192 C37.52 192 19.04 192 0 192 C0 128.64 0 65.28 0 0 Z " fill="#EDEDED" transform="translate(2012,74)"/>
<path d="M0 0 C18.81 0 37.62 0 57 0 C57 60.39 57 120.78 57 183 C38.19 183 19.38 183 0 183 C0 122.61 0 62.22 0 0 Z " fill="#EDEDED" transform="translate(473,155)"/>
<path d="M0 0 C7.92853907 5.34383533 13.24379285 11.31576566 15.56640625 20.828125 C17.04711308 30.35550125 15.84830428 39.50081098 10.328125 47.56640625 C5.51614908 53.47963039 -0.71812631 57.33322702 -8.046875 59.31640625 C-19.34839827 60.38563727 -27.38498887 59.18533544 -36.296875 52.19140625 C-41.71459731 47.19542281 -45.69138495 39.74546257 -46.28515625 32.34765625 C-46.48160707 23.00073316 -45.54975444 14.62491302 -39.796875 6.94140625 C-29.60992686 -2.78249879 -12.95764708 -7.09703189 0 0 Z " fill="#EDEDED" transform="translate(1343.046875,179.68359375)"/>
<path d="M0 0 C7.73199377 4.4473498 12.48642951 10.33308969 14.953125 18.8828125 C16.88342908 27.64595431 16.50613697 37.20413466 12.078125 45.1953125 C7.5287269 51.99097591 1.4244844 56.59707435 -6.546875 58.5703125 C-18.19575323 60.43988555 -27.62433188 58.64063706 -37.109375 51.9453125 C-43.2159669 45.97442264 -46.24466686 39.74044795 -46.921875 31.1953125 C-46.90920119 21.38578277 -45.42106078 13.14495487 -38.66015625 5.796875 C-28.18569469 -3.8537525 -12.93735897 -6.12596799 0 0 Z " fill="#EDEDED" transform="translate(1629.921875,216.8046875)"/>
</svg>
